<?xml version="1.0" encoding="UTF-8"?>
<svg version="1.1" xmlns="http://www.w3.org/2000/svg" width="348" height="350">
<path d="M0 0 C1.05006226 0.00373123 1.05006226 0.00373123 2.12133789 0.00753784 C25.60784907 0.1361112 49.60825358 4.27592668 70.41015625 15.734375 C73.37622552 17.40822756 73.37622552 17.40822756 76.90234375 18.83203125 C79.83407908 20.10480065 82.21335304 21.42186865 84.8125 23.25 C87.48919023 25.09505303 90.14331919 26.82368989 93 28.375 C96.43619873 30.38485209 99.3501532 32.68414328 102.3125 35.3125 C102.9415625 35.86164062 103.570625 36.41078125 104.21875 36.9765625 C105.58039024 38.16537918 106.93974535 39.35681795 108.296875 40.55078125 C110.18249177 42.19886878 112.08778913 43.82043472 114 45.4375 C133.70347 62.38958455 148.12751231 86.85953053 156.3125 111.3125 C156.55347412 111.98796875 156.79444824 112.6634375 157.04272461 113.359375 C166.4239214 140.14733585 167.95770631 172.67642742 161.3125 200.3125 C161.01759624 201.68838876 160.72466477 203.06470157 160.43359375 204.44140625 C158.6747788 212.40201273 156.1185377 219.69973255 152.75390625 227.12890625 C151.48365999 229.93446371 150.3449595 232.74796067 149.25 235.625 C142.09884236 253.62012619 129.42427785 268.38848812 116.3125 282.3125 C115.64476562 283.034375 114.97703125 283.75625 114.2890625 284.5 C108.99901463 290.03557752 103.01225472 294.62081343 96.87158203 299.15917969 C95.48891899 300.18199525 94.11670451 301.21890206 92.74609375 302.2578125 C82.60231648 309.71106565 70.98906089 314.75322429 59.3125 319.3125 C58.2709375 319.73402344 57.229375 320.15554688 56.15625 320.58984375 C20.29443348 334.37318211 -25.53049692 333.77660631 -60.6875 318.3125 C-62.2034375 317.73048828 -62.2034375 317.73048828 -63.75 317.13671875 C-86.54898646 308.31423862 -105.74794108 293.01161775 -122.3125 275.3125 C-123.17101562 274.40757812 -123.17101562 274.40757812 -124.046875 273.484375 C-127.06064136 270.26034587 -129.52779949 267.18939357 -131.6875 263.3125 C-132.60635955 262.06933707 -133.54364026 260.83955053 -134.5 259.625 C-140.66246323 251.48446216 -145.33683738 242.52357589 -149.6875 233.3125 C-150.10902344 232.42433594 -150.53054687 231.53617188 -150.96484375 230.62109375 C-164.50595034 200.20768183 -168.59579984 162.77500934 -160.6875 130.3125 C-160.35685547 128.94617432 -160.35685547 128.94617432 -160.01953125 127.55224609 C-151.69999686 94.34563891 -134.52994735 62.26642217 -107.6875 40.3125 C-106.70265625 39.49007812 -105.7178125 38.66765625 -104.703125 37.8203125 C-74.92119585 13.37167208 -38.65669229 -0.22118909 0 0 Z " fill="#FCFDFD" transform="translate(171.6875,7.6875)"/>
<path d="M0 0 C1.0430127 0.00088623 2.08602539 0.00177246 3.16064453 0.00268555 C12.69155711 0.146342 21.36125111 1.78944862 30.5 4.375 C31.50546875 4.63667969 32.5109375 4.89835937 33.546875 5.16796875 C51.34729672 10.04959955 68.0714692 22.54665639 77.5 38.375 C82.31731281 47.51318499 82.99488379 56.62977445 83.53515625 66.75 C83.94509891 72.61295357 84.89126269 77.17818085 87.61572266 82.41210938 C90.84469107 89.57967041 87.542628 97.69834152 85.5078125 104.80859375 C84.74203579 107.5184935 84.06635626 110.18294912 83.5 112.9375 C83.16989224 114.41738986 82.83614055 115.89646875 82.5 117.375 C82.26023438 118.47714844 82.02046875 119.57929688 81.7734375 120.71484375 C79.41718093 130.31402811 75.8246404 136.82523973 67.5 142.375 C66.77617533 144.43425139 66.77617533 144.43425139 66.5 146.375 C65.489375 146.33375 64.47875 146.2925 63.4375 146.25 C60.55961133 146.64217721 59.68271757 147.15590616 57.79296875 149.421875 C56.65378863 151.18266863 55.52667964 152.95131574 54.41015625 154.7265625 C51.84906572 158.27752238 48.79192257 160.52117732 45.22265625 163 C44.65417969 163.45375 44.08570313 163.9075 43.5 164.375 C43.5 165.035 43.5 165.695 43.5 166.375 C44.09425781 166.643125 44.68851563 166.91125 45.30078125 167.1875 C52.3209352 170.50651524 58.3751446 174.62067551 64.5 179.375 C65.1496875 179.86871094 65.799375 180.36242187 66.46875 180.87109375 C79.01519696 190.93676597 87.37328922 205.72761108 90.5 221.375 C90.5 225.665 90.5 229.955 90.5 234.375 C31.1 234.375 -28.3 234.375 -89.5 234.375 C-88.17854122 210.58874188 -81.72644827 196.70347172 -65.0234375 180.6171875 C-54.28711539 171.07748334 -38.3074312 160.375 -23.5 160.375 C-24.79430997 163.81875505 -26.29617662 166.89076565 -28.21484375 170.02734375 C-28.73626953 170.88650391 -29.25769531 171.74566406 -29.79492188 172.63085938 C-30.60799805 173.95827148 -30.60799805 173.95827148 -31.4375 175.3125 C-36.25749313 183.18528326 -36.25749313 183.18528326 -40.5 191.375 C-39.97148437 191.60445312 -39.44296875 191.83390625 -38.8984375 192.0703125 C-35.7149287 193.80205833 -32.95897269 196.01024739 -30.125 198.25 C-29.01455399 199.12434651 -27.90258282 199.99675964 -26.7890625 200.8671875 C-26.24797852 201.29870117 -25.70689453 201.73021484 -25.14941406 202.17480469 C-23.28476441 203.59593061 -23.28476441 203.59593061 -20.0859375 205.1328125 C-19.23257813 205.87273437 -18.37921875 206.61265625 -17.5 207.375 C-17.38012695 209.39160156 -17.38012695 209.39160156 -17.57421875 211.7109375 C-17.76747054 214.5589201 -17.84898296 215.87435928 -16.19775391 218.24316406 C-14.31948667 219.98360015 -12.38659222 221.49893605 -10.3125 223 C-9.63896484 223.54011719 -8.96542969 224.08023438 -8.27148438 224.63671875 C-4.50074211 227.54073493 -4.50074211 227.54073493 0.03125 228.5234375 C6.07791176 225.71059168 12.13702078 221.44905849 16.5 216.375 C17.16980197 213.69163187 16.95479126 212.04811132 16.51171875 209.3515625 C16.5 207.375 16.5 207.375 17.76953125 205.8359375 C19.10021141 204.86570635 20.46589321 203.94241387 21.85546875 203.05859375 C25.23621949 200.90629897 28.34367558 198.46497601 31.5 196 C32.64526777 195.11645392 33.7910578 194.23358417 34.9375 193.3515625 C35.783125 192.69929687 36.62875 192.04703125 37.5 191.375 C36.97493172 186.15754934 35.7201441 182.14848889 33.4375 177.4375 C32.88964844 176.29410156 32.34179688 175.15070313 31.77734375 173.97265625 C31.35582031 173.11542969 30.93429688 172.25820312 30.5 171.375 C29.8709375 171.50777344 29.241875 171.64054688 28.59375 171.77734375 C24.42847599 172.63674517 20.36818454 173.42175365 16.125 173.75 C12.10626763 174.44288489 11.0122387 175.28301391 8.5 178.375 C4.75353331 180.24823335 0.56975747 180.0394502 -3.5 179.375 C-6.2810037 177.65605732 -6.85450122 176.39174776 -8.5 173.375 C-9.18359886 169.04554058 -9.0279283 167.18449006 -6.625 163.5 C-3.76214372 160.63714372 -2.13283238 160.1884854 1.8125 160.0625 C6.38527775 160.07708621 7.97810161 161.50187236 11.5 164.375 C15.02894948 164.28756309 15.02894948 164.28756309 18.5 163.375 C19.44875 163.230625 20.3975 163.08625 21.375 162.9375 C22.07625 162.751875 22.7775 162.56625 23.5 162.375 C23.83 161.715 24.16 161.055 24.5 160.375 C25.54929687 160.24351562 26.59859375 160.11203125 27.6796875 159.9765625 C34.49303717 158.90370376 40.80161097 154.48047358 45.3125 149.2890625 C46.41665968 147.67882963 47.46520934 146.03066506 48.5 144.375 C49.16 144.375 49.82 144.375 50.5 144.375 C50.5 142.725 50.5 141.075 50.5 139.375 C49.78714844 139.78492188 49.07429687 140.19484375 48.33984375 140.6171875 C35.27967886 147.96462885 35.27967886 147.96462885 30.30859375 146.91015625 C29.71175781 146.73355469 29.11492187 146.55695313 28.5 146.375 C29.24443359 145.91673828 29.24443359 145.91673828 30.00390625 145.44921875 C36.35355535 141.17194089 39.76834714 135.97256225 43.5 129.375 C44.0775 128.405625 44.655 127.43625 45.25 126.4375 C48.13348815 119.37295404 50.02150544 112.02374648 49.5 104.375 C48.61441406 105.35082031 47.72882813 106.32664062 46.81640625 107.33203125 C41.60932543 111.78195667 35.98917192 111.21979866 29.4375 111.0625 C28.27927734 111.07732422 27.12105469 111.09214844 25.92773438 111.10742188 C16.52836171 111.01564167 16.52836171 111.01564167 12.77734375 107.96484375 C9.82579791 104.60828304 8.5 102.86087403 8.5 98.375 C3.88 98.375 -0.74 98.375 -5.5 98.375 C-5.83 100.025 -6.16 101.675 -6.5 103.375 C-12.49572964 110.15964144 -12.49572964 110.15964144 -17.05615234 110.6496582 C-20.32949017 110.67788118 -23.60152241 110.69671587 -26.875 110.6875 C-28.01195312 110.70361328 -29.14890625 110.71972656 -30.3203125 110.73632812 C-31.41859375 110.73697266 -32.516875 110.73761719 -33.6484375 110.73828125 C-34.65052246 110.74126221 -35.65260742 110.74424316 -36.68505859 110.74731445 C-40.72169232 110.2134145 -43.42524112 108.61428987 -46.08203125 105.55078125 C-47.22135417 103.82552083 -48.36067708 102.10026042 -49.5 100.375 C-48.82052159 106.04749954 -47.54768439 111.42543082 -46.0625 116.9375 C-45.73668945 118.1740332 -45.73668945 118.1740332 -45.40429688 119.43554688 C-42.9040708 128.82828808 -40.47444419 137.27823827 -32.0390625 143.0625 C-29.88918022 144.25612549 -27.74078392 145.36385261 -25.5 146.375 C-25.5 146.705 -25.5 147.035 -25.5 147.375 C-32.214516 147.06979473 -40.67328865 144.20171135 -45.5 139.375 C-47.34891946 139.14136119 -49.20488031 138.96196365 -51.0625 138.8125 C-52.07441406 138.72871094 -53.08632812 138.64492187 -54.12890625 138.55859375 C-54.91136719 138.49800781 -55.69382813 138.43742188 -56.5 138.375 C-56.479375 139.344375 -56.45875 140.31375 -56.4375 141.3125 C-56.5 144.375 -56.5 144.375 -57.5 145.375 C-60.8125 145.75 -60.8125 145.75 -64.5 145.375 C-66.625 143.1875 -66.625 143.1875 -68.5 140.375 C-70.77577411 138.04233154 -73.02468493 135.7718211 -75.52685547 133.68286133 C-78.06818746 130.71042736 -78.7575816 127.73987231 -79.5703125 124.01171875 C-79.73747772 123.30151077 -79.90464294 122.5913028 -80.07687378 121.85957336 C-80.60654558 119.59678998 -81.11627255 117.33007426 -81.625 115.0625 C-82.14526012 112.80683184 -82.66955433 110.55213188 -83.19454956 108.29756165 C-83.51884803 106.89818083 -83.83965314 105.49798395 -84.15628052 104.09684753 C-85.13060218 99.80991894 -86.28271387 95.59845077 -87.5 91.375 C-88.33321664 86.20905685 -87.83472071 82.60922808 -85.125 78.125 C-82.16919888 72.85092349 -81.85984125 67.85027748 -81.4375 61.9375 C-80.15469988 44.76679478 -73.6511723 31.79004394 -60.5 20.375 C-48.8763662 10.95788652 -35.95440547 5.53877547 -21.5 2.375 C-20.74976563 2.19839844 -19.99953125 2.02179687 -19.2265625 1.83984375 C-12.78568777 0.40853825 -6.58928577 -0.01018685 0 0 Z " fill="#043C5F" transform="translate(171.5,32.625)"/>
<path d="M0 0 C0.66 0 1.32 0 2 0 C3.71059691 2.09374648 5.32988184 4.20443734 6.9375 6.375 C16.56472793 18.92647467 28.37719337 27.7869261 41.9453125 35.72265625 C42.62335938 36.14417969 43.30140625 36.56570312 44 37 C44 37.33 44 37.66 44 38 C43.43079834 37.99887207 42.86159668 37.99774414 42.27514648 37.99658203 C39.66143604 38.00879191 37.05056958 38.06656658 34.4375 38.125 C33.54224609 38.12242188 32.64699219 38.11984375 31.72460938 38.1171875 C25.9183955 38.28733296 22.59441234 39.31916031 18.26196289 43.22998047 C16.57770134 45.33670366 16.57770134 45.33670366 16 50 C11.38 50 6.76 50 2 50 C1.44661458 48.30729167 0.89322917 46.61458333 0.33984375 44.921875 C-1.811009 41.8366868 -4.54928516 40.27984804 -8 39 C-11.64707046 38.41220405 -15.24806487 38.30548023 -18.9375 38.25 C-19.90751953 38.22035156 -20.87753906 38.19070312 -21.87695312 38.16015625 C-24.25138298 38.08997606 -26.62486086 38.03702676 -29 38 C-26.00978391 34.95217905 -22.97122975 32.10043566 -19.6875 29.375 C-10.49228939 21.20147946 -5.12468719 10.97003351 0 0 Z " fill="#F6F8F9" transform="translate(164,78)"/>
<path d="M0 0 C1.03769531 -0.03738281 2.07539063 -0.07476562 3.14453125 -0.11328125 C11.75227081 -0.21222079 11.75227081 -0.21222079 15.41796875 2.6484375 C18.17373092 5.8704174 18.70667586 7.37190018 18.921875 11.4453125 C18.6567714 14.42170288 17.67127434 16.12247147 15.75 18.375 C10.86029537 21.43738219 5.39794357 20.78273742 -0.1875 20.8125 C-1.27224609 20.84537109 -2.35699219 20.87824219 -3.47460938 20.91210938 C-11.46471059 20.96612973 -11.46471059 20.96612973 -15.44140625 17.97265625 C-18.1070325 14.14405699 -18.79298961 12.08090995 -18.25 7.375 C-13.43746448 -0.40047717 -8.38260911 0.11286255 0 0 Z " fill="#F5F7F9" transform="translate(144.25,118.625)"/>
<path d="M0 0 C1.32257813 -0.04350586 1.32257813 -0.04350586 2.671875 -0.08789062 C8.74158016 -0.14660057 12.2976865 0.74392115 17.25 4.3125 C18.38624119 6.58498238 18.51446843 8.09552764 18.625 10.625 C18.67398438 11.38425781 18.72296875 12.14351562 18.7734375 12.92578125 C17.91906642 16.82145832 16.52766718 18.0387672 13.25 20.3125 C9.23520479 21.00113044 5.31241556 20.91915053 1.25 20.8125 C0.16976562 20.81507813 -0.91046875 20.81765625 -2.0234375 20.8203125 C-7.55498363 20.75202181 -11.15269238 20.65993925 -15.75 17.3125 C-18.26250583 13.54374125 -18.28016086 11.78099866 -17.75 7.3125 C-13.40809642 -0.18563348 -7.79664148 0.08401553 0 0 Z " fill="#F8F9FA" transform="translate(200.75,118.6875)"/>
<path d="M0 0 C10.46778133 1.11426158 21.09600712 9.31589493 28 17 C37.32316807 28.80087543 37.74884062 39.37200107 36.25390625 53.8671875 C36.17011719 54.57101563 36.08632812 55.27484375 36 56 C35.34 56 34.68 56 34 56 C34 56.99 34 57.98 34 59 C33.01 59 32.02 59 31 59 C30.76216797 57.47632812 30.76216797 57.47632812 30.51953125 55.921875 C29.0488545 47.04258288 26.98764478 39.14243635 23 31 C22.63132813 30.22398438 22.26265625 29.44796875 21.8828125 28.6484375 C16.46815072 18.08051141 8.52499433 9.9399228 -1 3 C-0.67 2.01 -0.34 1.02 0 0 Z " fill="#F3F5F7" transform="translate(211,50)"/>
<path d="M0 0 C2.206875 -0.061875 4.41375 -0.12375 6.6875 -0.1875 C8.54955078 -0.23970703 8.54955078 -0.23970703 10.44921875 -0.29296875 C14.23312565 0.01923479 15.97088049 0.79454089 19 3 C19.7425 3.53625 20.485 4.0725 21.25 4.625 C23.870526 8.18142815 24.19685868 11.63882311 24 16 C22.51216314 20.22858897 20.86411644 22.70568086 17 25 C11.57364835 26.80878388 5.66885438 26.05200784 0 26 C0 17.42 0 8.84 0 0 Z " fill="#144969" transform="translate(143,277)"/>
<path d="M0 0 C0.66 0 1.32 0 2 0 C2 0.99 2 1.98 2 3 C-4.27 3.33 -10.54 3.66 -17 4 C-16.505 4.99 -16.505 4.99 -16 6 C-16.78375 6.433125 -17.5675 6.86625 -18.375 7.3125 C-21.21698375 8.89220247 -21.21698375 8.89220247 -23 12 C-23.33470491 15.68175404 -23.4957479 18.10293238 -21.6875 21.375 C-17.42767676 25.47705201 -10.57351905 24.22420237 -5.0625 24.25 C-3.96486328 24.270625 -2.86722656 24.29125 -1.73632812 24.3125 C-0.67994141 24.31765625 0.37644531 24.3228125 1.46484375 24.328125 C2.430271 24.3374707 3.39569824 24.34681641 4.39038086 24.35644531 C7.42745026 23.94161499 8.66337201 22.90829306 11 21 C13.75 20.8125 13.75 20.8125 16 21 C15.67 22.32 15.34 23.64 15 25 C14.505 24.01 14.505 24.01 14 23 C13.11441406 23.97582031 12.22882813 24.95164063 11.31640625 25.95703125 C6.10932543 30.40695667 0.48917192 29.84479866 -6.0625 29.6875 C-7.22072266 29.70232422 -8.37894531 29.71714844 -9.57226562 29.73242188 C-18.97163829 29.64064167 -18.97163829 29.64064167 -22.72265625 26.58984375 C-25.67420209 23.23328304 -27 21.48587403 -27 17 C-31.62 17 -36.24 17 -41 17 C-41.495 19.475 -41.495 19.475 -42 22 C-48.03656333 28.83084798 -48.03656333 28.83084798 -52.63549805 29.22705078 C-53.66715088 29.21657715 -54.69880371 29.20610352 -55.76171875 29.1953125 C-56.87998047 29.18886719 -57.99824219 29.18242187 -59.15039062 29.17578125 C-60.90125977 29.15064453 -60.90125977 29.15064453 -62.6875 29.125 C-63.86634766 29.11597656 -65.04519531 29.10695312 -66.25976562 29.09765625 C-69.17338026 29.07406423 -72.08658892 29.0411454 -75 29 C-75 28.67 -75 28.34 -75 28 C-67.08 28 -59.16 28 -51 28 C-51 27.34 -51 26.68 -51 26 C-58.26 26 -65.52 26 -73 26 C-73 25.67 -73 25.34 -73 25 C-72.03175293 24.96241577 -72.03175293 24.96241577 -71.04394531 24.92407227 C-68.11244106 24.80785567 -65.18123783 24.68524558 -62.25 24.5625 C-61.23421875 24.52318359 -60.2184375 24.48386719 -59.171875 24.44335938 C-58.1921875 24.40146484 -57.2125 24.35957031 -56.203125 24.31640625 C-54.85202637 24.26141968 -54.85202637 24.26141968 -53.47363281 24.20532227 C-51.174684 24.01449953 -49.17893806 23.75548227 -47 23 C-44.68373586 19.36015636 -44.88733062 16.0950741 -45.22265625 11.96484375 C-46.50094909 8.73378194 -47.98395499 7.74235182 -51 6 C-54.60050845 5.38149187 -58.16491846 5.30389308 -61.8125 5.25 C-62.79154297 5.22035156 -63.77058594 5.19070312 -64.77929688 5.16015625 C-67.18627953 5.08970798 -69.5923079 5.03688975 -72 5 C-72 4.01 -72 3.02 -72 2 C-68.64613239 1.8828107 -65.29279851 1.81242416 -61.9375 1.75 C-60.99455078 1.71648437 -60.05160156 1.68296875 -59.08007812 1.6484375 C-52.78219493 1.56066212 -49.14364489 2.30642521 -44 6 C-41.08759424 9.00635434 -41 9.62282923 -41 14 C-36.38 14 -31.76 14 -27 14 C-27 12.35 -27 10.7 -27 9 C-25.09331655 5.50326646 -22.56393447 3.69732951 -19 2 C-12.74305958 0.86299342 -6.33860947 0.95527191 0 1 C0 0.67 0 0.34 0 0 Z " fill="#1C4F6F" transform="translate(207,114)"/>
<path d="M0 0 C0.495 1.485 0.495 1.485 1 3 C0.33355469 3.37769531 -0.33289063 3.75539062 -1.01953125 4.14453125 C-17.00669661 13.69211112 -29.31093116 28.56966647 -33.97265625 46.8046875 C-34.70606531 50.19542521 -35.38691293 53.5856533 -36 57 C-36.66 57 -37.32 57 -38 57 C-38 53.04 -38 49.08 -38 45 C-38.66 45 -39.32 45 -40 45 C-39.94874389 31.98094704 -34.53170659 22.73330237 -25.6484375 13.4765625 C-19.29718822 7.53748869 -9.35433696 -1.16929212 0 0 Z " fill="#ECF1F3" transform="translate(136,49)"/>
<path d="M0 0 C2.31 0 4.62 0 7 0 C7.433125 0.9075 7.86625 1.815 8.3125 2.75 C9.71153746 5.44444252 11.15258092 7.61957205 13 10 C13.36351562 9.278125 13.72703125 8.55625 14.1015625 7.8125 C14.60429687 6.884375 15.10703125 5.95625 15.625 5 C16.11226562 4.071875 16.59953125 3.14375 17.1015625 2.1875 C18.04128906 1.1046875 18.04128906 1.1046875 19 0 C20.98 0 22.96 0 25 0 C25 8.58 25 17.16 25 26 C23.35 26 21.7 26 20 26 C19.67 21.05 19.34 16.1 19 11 C17.35 13.97 15.7 16.94 14 20 C13.34 20 12.68 20 12 20 C11.34 18.35 10.68 16.7 10 15 C9.34 15 8.68 15 8 15 C8 14.01 8 13.02 8 12 C7.34 12 6.68 12 6 12 C6 16.62 6 21.24 6 26 C4.02 26 2.04 26 0 26 C0 17.42 0 8.84 0 0 Z " fill="#0F4566" transform="translate(171,277)"/>
<path d="M0 0 C6 0 6 0 7.875 1.8125 C9 4 9 4 9 7 C9.99 7.33 10.98 7.66 12 8 C13.32 9.65 14.64 11.3 16 13 C16.33 8.71 16.66 4.42 17 0 C18.98 0 20.96 0 23 0 C23 8.58 23 17.16 23 26 C18 26 18 26 16.05078125 24.06640625 C15.47714844 23.24011719 14.90351563 22.41382813 14.3125 21.5625 C12.13194901 18.23429217 12.13194901 18.23429217 9 16 C8.67 15.01 8.34 14.02 8 13 C7.34 12.67 6.68 12.34 6 12 C6 16.62 6 21.24 6 26 C4.02 26 2.04 26 0 26 C0 17.42 0 8.84 0 0 Z " fill="#164A6A" transform="translate(214,277)"/>
<path d="M0 0 C1.98 0 3.96 0 6 0 C16 20.96666667 16 20.96666667 16 26 C14.35 26 12.7 26 11 26 C10.34 24.35 9.68 22.7 9 21 C5.04 21 1.08 21 -3 21 C-3.99 23.475 -3.99 23.475 -5 26 C-6.65 26 -8.3 26 -10 26 C-7.16894381 17.12077831 -3.71414845 8.54254143 0 0 Z " fill="#0B4263" transform="translate(123,277)"/>
<path d="M0 0 C7.22891566 -0.48192771 7.22891566 -0.48192771 10.5 1.5625 C12.58392818 4.94888329 12.55802097 7.09385318 12 11 C10.5 13.4375 10.5 13.4375 8 15 C5.24154167 15.32111824 2.79456032 15.18630402 0 15 C0 10.05 0 5.1 0 0 Z " fill="#FCFCFD" transform="translate(149,283)"/>
<path d="M0 0 C1.65 0 3.3 0 5 0 C5 8.58 5 17.16 5 26 C3.35 26 1.7 26 0 26 C0 17.42 0 8.84 0 0 Z " fill="#033B5E" transform="translate(203,277)"/>
<path d="M0 0 C0.33 0 0.66 0 1 0 C1 1.65 1 3.3 1 5 C1.66 5 2.32 5 3 5 C1.60466338 9.43970742 -0.56128532 11.90515679 -4 15 C-6.66178221 16.3308911 -8.68739396 16.11268993 -11.6640625 16.09765625 C-12.78554687 16.09443359 -13.90703125 16.09121094 -15.0625 16.08789062 C-16.238125 16.07951172 -17.41375 16.07113281 -18.625 16.0625 C-19.80835938 16.05798828 -20.99171875 16.05347656 -22.2109375 16.04882812 C-25.14067507 16.03701467 -28.07031272 16.02054258 -31 16 C-31 15.67 -31 15.34 -31 15 C-23.08 15 -15.16 15 -7 15 C-7 14.34 -7 13.68 -7 13 C-14.26 13 -21.52 13 -29 13 C-29 12.67 -29 12.34 -29 12 C-28.03175293 11.96241577 -28.03175293 11.96241577 -27.04394531 11.92407227 C-24.11244106 11.80785567 -21.18123783 11.68524558 -18.25 11.5625 C-17.23421875 11.52318359 -16.2184375 11.48386719 -15.171875 11.44335938 C-14.1921875 11.40146484 -13.2125 11.35957031 -12.203125 11.31640625 C-11.30239258 11.27974854 -10.40166016 11.24309082 -9.47363281 11.20532227 C-7.1711679 11.01420768 -5.17553587 10.77889556 -3 10 C-1.85706445 7.68684675 -1.85706445 7.68684675 -1.25 4.9375 C-1.00765625 4.01839844 -0.7653125 3.09929687 -0.515625 2.15234375 C-0.34546875 1.44207031 -0.1753125 0.73179688 0 0 Z " fill="#386581" transform="translate(163,127)"/>
<path d="M0 0 C0.928125 0.061875 1.85625 0.12375 2.8125 0.1875 C2.4825 1.5075 2.1525 2.8275 1.8125 4.1875 C1.3175 3.1975 1.3175 3.1975 0.8125 2.1875 C-0.06535156 3.16976562 -0.94320312 4.15203125 -1.84765625 5.1640625 C-7.13104488 9.69268133 -13.00937867 8.8440158 -19.625 8.5625 C-20.83349609 8.53542969 -22.04199219 8.50835937 -23.28710938 8.48046875 C-26.25576181 8.41006593 -29.22068947 8.31163433 -32.1875 8.1875 C-32.1875 7.8575 -32.1875 7.5275 -32.1875 7.1875 C-23.9375 7.1875 -15.6875 7.1875 -7.1875 7.1875 C-7.1875 6.5275 -7.1875 5.8675 -7.1875 5.1875 C-14.1175 5.1875 -21.0475 5.1875 -28.1875 5.1875 C-28.1875 4.8575 -28.1875 4.5275 -28.1875 4.1875 C-27.21139771 4.16562622 -27.21139771 4.16562622 -26.21557617 4.14331055 C-23.26811694 4.06885451 -20.32179358 3.97218734 -17.375 3.875 C-16.35083984 3.85244141 -15.32667969 3.82988281 -14.27148438 3.80664062 C-13.28857422 3.77119141 -12.30566406 3.73574219 -11.29296875 3.69921875 C-10.38699951 3.67303467 -9.48103027 3.64685059 -8.54760742 3.61987305 C-4.61195758 2.89885972 -4.19989081 0.2470524 0 0 Z " fill="#3D6984" transform="translate(220.1875,134.8125)"/>
<path d="M0 0 C1.32 0 2.64 0 4 0 C5.05771739 1.63064764 6.05273046 3.30280873 7 5 C9.06954847 6.78344178 9.06954847 6.78344178 11 8 C10.67 8.66 10.34 9.32 10 10 C6.18268377 9.45466911 4.44308811 7.93170573 2 5 C0.75 2.25 0.75 2.25 0 0 Z " fill="#1B4F6E" transform="translate(123,132)"/>
<path d="M0 0 C0.66 0 1.32 0 2 0 C2.66 2.64 3.32 5.28 4 8 C2.02 8 0.04 8 -2 8 C-1.34 5.36 -0.68 2.72 0 0 Z " fill="#DAE3E7" transform="translate(125,285)"/>
<path d="M0 0 C0.99 0.495 0.99 0.495 2 1 C4.204364 1.22950319 6.41392173 1.41075933 8.625 1.5625 C9.81351563 1.64628906 11.00203125 1.73007813 12.2265625 1.81640625 C13.59941406 1.90728516 13.59941406 1.90728516 15 2 C15 2.33 15 2.66 15 3 C10.71 3 6.42 3 2 3 C2 3.66 2 4.32 2 5 C1.34 5 0.68 5 0 5 C0 3.35 0 1.7 0 0 Z " fill="#023B5E" transform="translate(164,127)"/>
<path d="M0 0 C3.96 1.98 3.96 1.98 8 4 C8 4.33 8 4.66 8 5 C1.25 4.25 1.25 4.25 -1 2 C-0.67 1.34 -0.34 0.68 0 0 Z " fill="#678A9E" transform="translate(138,175)"/>
<path d="M0 0 C0.33 0 0.66 0 1 0 C1.33 3.3 1.66 6.6 2 10 C0.35 9.67 -1.3 9.34 -3 9 C-2.34 8.34 -1.68 7.68 -1 7 C-0.59952556 4.67724823 -0.2602896 2.34260643 0 0 Z " fill="#D5DFE4" transform="translate(171,252)"/>
<path d="M0 0 C2 3 2 3 1.625 5.6875 C1.41875 6.450625 1.2125 7.21375 1 8 C-1 6 -1 6 -1.1875 3.4375 C-1 1 -1 1 0 0 Z " fill="#094162" transform="translate(181,128)"/>
</svg>
